<svg width="145" height="40" viewBox="0 0 145 40" fill="none" xmlns="http://www.w3.org/2000/svg">
<path d="M132.206 12.7939C134.795 12.7939 137.035 13.2383 138.927 14.1272C140.852 14.983 142.345 16.3985 143.407 18.3737C144.469 20.3488 145 22.9988 145 26.3235C145 29.6483 144.469 32.2983 143.407 34.2734C142.345 36.2485 140.852 37.664 138.927 38.5199C137.035 39.3758 134.795 39.8038 132.206 39.8038C129.651 39.8038 127.411 39.3758 125.486 38.5199C123.561 37.664 122.067 36.2485 121.005 34.2734C119.943 32.2983 119.412 29.6483 119.412 26.3235C119.412 22.9988 119.943 20.3488 121.005 18.3737C122.067 16.3985 123.561 14.983 125.486 14.1272C127.411 13.2383 129.651 12.7939 132.206 12.7939ZM132.206 13.7815C131.211 13.7815 130.381 14.7691 129.717 16.7442C129.053 18.7193 128.721 21.9124 128.721 26.3235C128.721 30.7346 129.053 33.9278 129.717 35.9029C130.381 37.8451 131.211 38.8162 132.206 38.8162C133.202 38.8162 134.032 37.8451 134.695 35.9029C135.359 33.9278 135.691 30.7346 135.691 26.3235C135.691 21.9124 135.359 18.7193 134.695 16.7442C134.032 14.7691 133.202 13.7815 132.206 13.7815Z" fill="#FFC97A"/>
<path d="M81.2603 12.3203C82.7434 12.3203 84.0412 12.4878 85.1535 12.8228C86.2995 13.1242 87.1253 13.4089 87.631 13.6769C88.8107 14.3803 89.5354 13.9449 89.805 12.3706H90.8163C90.7488 13.342 90.6983 14.5311 90.6646 15.9379C90.6309 17.3113 90.614 19.1368 90.614 21.4145H89.6028C89.468 20.1752 89.1646 18.9526 88.6927 17.7467C88.2545 16.5408 87.5972 15.536 86.7209 14.732C85.8782 13.9281 84.7659 13.5262 83.3839 13.5262C82.5412 13.5262 81.8334 13.7774 81.2603 14.2798C80.6873 14.7823 80.4008 15.469 80.4008 16.3399C80.4008 17.3448 80.7042 18.2492 81.3109 19.0531C81.9176 19.8235 82.6929 20.5771 83.6367 21.3141C84.5805 22.0175 85.5243 22.7711 86.4681 23.5751C87.513 24.4125 88.4399 25.2331 89.2489 26.037C90.0579 26.8409 90.6983 27.7286 91.1702 28.7C91.6758 29.6379 91.9286 30.76 91.9286 32.0663C91.9286 33.5737 91.4567 34.9135 90.5129 36.0859C89.6028 37.2583 88.3725 38.1794 86.822 38.8493C85.3052 39.4858 83.603 39.804 81.7154 39.804C80.5356 39.804 79.5076 39.67 78.6312 39.402C77.7548 39.1675 77.047 38.8828 76.5077 38.5479C75.9683 38.2799 75.4964 38.0789 75.092 37.9449C74.7212 37.7775 74.3504 37.6937 73.9796 37.6937C73.6426 37.6937 73.3561 37.8779 73.1201 38.2464C72.8842 38.5814 72.6988 38.9833 72.5639 39.4523H71.5527C71.6201 38.3804 71.6707 37.074 71.7044 35.5332C71.7381 33.9924 71.755 31.9491 71.755 29.4034H72.7662C72.9684 31.1787 73.3561 32.753 73.9291 34.1264C74.5358 35.4997 75.2942 36.5883 76.2043 37.3923C77.1481 38.1627 78.2267 38.5479 79.4402 38.5479C79.9795 38.5479 80.4682 38.4474 80.9064 38.2464C81.3446 38.0454 81.6985 37.744 81.9682 37.342C82.2378 36.9401 82.3727 36.4209 82.3727 35.7844C82.3727 34.3106 81.9176 33.0712 81.0075 32.0663C80.1312 31.0615 79.0188 29.9561 77.6705 28.7502C76.6593 27.8123 75.6987 26.9079 74.7886 26.037C73.9122 25.1326 73.1875 24.1612 72.6145 23.1229C72.0415 22.051 71.755 20.8619 71.755 19.5555C71.755 18.0482 72.1932 16.7586 73.0695 15.6867C73.9796 14.6148 75.1594 13.7941 76.6088 13.2247C78.0582 12.6218 79.6087 12.3203 81.2603 12.3203Z" fill="#FFC97A"/>
<path d="M66.4993 12.3203C67.6938 12.3203 68.6228 12.5858 69.2864 13.1169C69.95 13.6148 70.4145 14.262 70.68 15.0585C70.9454 15.8219 71.0782 16.5853 71.0782 17.3487C71.0782 18.8423 70.6468 20.0372 69.7841 20.9333C68.9546 21.7963 67.8597 22.2277 66.4993 22.2277C65.0393 22.2277 63.9278 21.8958 63.1646 21.232C62.4347 20.5682 62.0697 19.7052 62.0697 18.6431C62.0697 17.5147 62.3019 16.5853 62.7665 15.8551C63.2642 15.1249 63.878 14.5109 64.608 14.013C64.0107 14.013 63.4798 14.1292 63.0153 14.3615C62.6172 14.5275 62.2356 14.7598 61.8706 15.0585C61.5056 15.3573 61.1904 15.7058 60.925 16.1041C60.6595 16.4692 60.4438 16.884 60.2779 17.3487C60.1452 17.8134 60.0789 18.2946 60.0789 18.7925V33.7283C60.0789 35.3215 60.4107 36.4002 61.0743 36.9644C61.7379 37.5286 62.8328 37.8108 64.3591 37.8108V38.8563C63.596 38.8231 62.4513 38.7899 60.925 38.7567C59.4318 38.6903 57.889 38.6571 56.2963 38.6571C54.8032 38.6571 53.2935 38.6903 51.7672 38.7567C50.2409 38.7899 49.0962 38.8231 48.333 38.8563V37.8108C49.3616 37.8108 50.075 37.5618 50.4731 37.064C50.9045 36.5661 51.1202 35.6202 51.1202 34.2262V18.444C51.1202 16.9504 50.9211 15.8551 50.5229 15.1581C50.1247 14.4279 49.3948 14.0628 48.333 14.0628V13.0173C49.3948 13.1169 50.4234 13.1667 51.4188 13.1667C53.0778 13.1667 54.6207 13.1169 56.0474 13.0173C57.5074 12.8846 58.8512 12.702 60.0789 12.4697V16.0543C60.5102 15.1913 61.0411 14.4943 61.6715 13.9633C62.3019 13.399 63.0153 12.9841 63.8117 12.7186C64.6412 12.4531 65.537 12.3203 66.4993 12.3203Z" fill="#FFC97A"/>
<path d="M13.9663 0C15.2964 0 16.4437 0.165628 17.408 0.496885C18.3724 0.82814 19.2203 1.27533 19.9519 1.83847C20.4174 2.20285 20.8331 2.74942 21.1989 3.47818C21.5979 4.17381 21.7974 5.00195 21.7974 5.96259C21.7974 6.98948 21.415 7.917 20.6502 8.74514C19.8854 9.57327 18.8878 9.98734 17.6574 9.98734C16.294 9.98734 15.1967 9.62296 14.3654 8.8942C13.5673 8.16544 13.1682 7.15511 13.1682 5.86322C13.1682 4.90258 13.4509 4.02475 14.0162 3.22974C14.5815 2.4016 15.4461 1.80534 16.6099 1.44096C16.5102 1.30846 16.3439 1.20908 16.1111 1.14283C15.9116 1.04345 15.629 0.993767 15.2632 0.993767C14.6979 0.993767 14.2323 1.07658 13.8666 1.24221C13.5008 1.40784 13.1849 1.63971 12.9188 1.93784C12.6196 2.30222 12.3868 2.81567 12.2205 3.47818C12.0543 4.14069 11.9711 5.13445 11.9711 6.45948V13.1177H17.3083V14.1115H11.9711V33.7383C11.9711 35.3615 12.3535 36.4546 13.1184 37.0178C13.8832 37.5478 14.9307 37.8128 16.2608 37.8128V38.8562C15.3297 38.8231 14.0328 38.79 12.3702 38.7568C10.7075 38.6906 8.94509 38.6575 7.08292 38.6575C5.75279 38.6575 4.43929 38.6906 3.14242 38.7568C1.84555 38.79 0.864582 38.8231 0.199519 38.8562V37.8128C1.23037 37.8128 1.94531 37.5643 2.34435 37.0674C2.77664 36.5706 2.99278 35.6265 2.99278 34.2352V14.1115H0V13.1177H2.99278C2.99278 11.1633 3.10917 9.54015 3.34194 8.24825C3.57471 6.95636 3.9405 5.86322 4.43929 4.96883C4.97134 4.04131 5.66966 3.21318 6.53424 2.48441C7.29906 1.8219 8.34654 1.24221 9.67666 0.745326C11.0068 0.248442 12.4367 0 13.9663 0Z" fill="#FFC97A"/>
<path d="M33.6437 29.063C33.6437 28.5396 33.1933 28.4312 32.5106 28.4312C31.8279 28.4312 31.2744 28.5396 31.2744 29.063C31.2744 29.5864 31.8279 30.3266 32.5106 30.3266C33.1933 30.3266 33.6437 29.5864 33.6437 29.063Z" fill="#FFC97A"/>
<path d="M44.5664 33.4697C44.5664 34.9636 44.7647 36.0763 45.1611 36.8066C45.5906 37.5036 46.3171 37.8525 47.3408 37.8525V38.8984C46.3169 38.7989 45.2924 38.749 44.2686 38.749C42.6171 38.749 41.0805 38.7989 39.6602 38.8984C38.2399 38.998 36.9016 39.1807 35.6465 39.4463V35.8604C34.8537 37.1883 33.7801 38.1514 32.4258 38.749C31.1046 39.3133 29.5521 39.5956 27.7686 39.5957C26.2493 39.5957 25.0432 39.3963 24.1514 38.998C23.2926 38.6329 22.6314 38.1678 22.1689 37.6035C21.6735 37.006 21.3103 36.2088 21.0791 35.2129C20.8479 34.217 20.7315 32.8725 20.7314 31.1797V18.4805C20.7314 16.9869 20.5339 15.8906 20.1377 15.1934C19.7413 14.463 19.014 14.0977 17.957 14.0977V13.0518C20.5231 13.4177 26.3254 13.9394 30.7471 13.4092L30.6689 24.7432C30.6689 24.7725 30.6599 26.4721 29.627 27.3477C28.8461 28.0093 26.9401 28.1797 26.918 28.1816C26.9181 31.1738 29.3907 33.0789 32.4404 33.0791C35.4902 33.079 37.9627 31.1739 37.9629 28.1816C37.9282 28.181 35.9649 28.1391 35.1504 27.3477C34.2208 26.4438 34.212 24.7722 34.2119 24.7432L34.292 13.2012H35.9443C37.5959 13.2012 39.1323 13.1514 40.5527 13.0518C42.0061 12.919 43.3442 12.7363 44.5664 12.5039V33.4697ZM28.377 24.1738C27.9724 24.1738 27.5431 24.3748 27.543 25.1777C27.543 25.7321 28.2496 25.178 28.71 25.1777C29.1703 25.1777 29.21 25.7322 29.21 25.1777C29.2098 24.6234 28.8372 24.1739 28.377 24.1738ZM36.5039 24.1738C36.0438 24.1741 35.671 24.6236 35.6709 25.1777C35.6709 25.7322 35.7105 25.1777 36.1709 25.1777C36.6313 25.1777 37.3379 25.7322 37.3379 25.1777C37.3378 24.3748 36.9084 24.1738 36.5039 24.1738Z" fill="#FFC97A"/>
<path d="M117.203 3.54297C118.365 3.54301 119.228 3.856 119.793 4.48242C120.357 5.10899 120.64 5.88428 120.64 6.80762C120.64 7.76403 120.374 8.5065 119.843 9.03418C119.345 9.56172 118.73 9.82516 118 9.8252C117.369 9.8252 116.788 9.61118 116.257 9.18262C115.759 8.75388 115.477 8.1104 115.41 7.25293C115.353 6.51276 115.58 5.6008 116.092 4.5166C115.148 4.90999 114.389 5.37624 113.815 5.91699C113.472 6.24146 113.156 6.62888 112.865 7.07715C113.024 7.24419 113.175 7.41789 113.317 7.59961C114.247 8.7539 114.712 10.2379 114.712 12.0518C114.712 13.8656 114.247 15.3665 113.317 16.5537C112.388 17.7078 111.109 18.5654 109.482 19.126C107.888 19.6866 106.062 19.9668 104.003 19.9668C103.534 19.9668 103.076 19.95 102.63 19.9209C102.382 20.108 102.126 20.3214 101.861 20.5605C101.496 20.8903 101.313 21.3685 101.313 21.9951C101.314 23.0503 101.911 23.5781 103.106 23.5781H107.938C110.097 23.5781 111.973 23.8089 113.566 24.2705C115.194 24.7322 116.456 25.4906 117.353 26.5459C118.282 27.5682 118.747 28.9206 118.747 30.6025C118.747 32.2515 118.199 33.7691 117.104 35.1543C116.041 36.5724 114.38 37.6931 112.122 38.5176C109.864 39.375 106.925 39.8037 103.306 39.8037C101.048 39.8037 99.0881 39.6225 97.4277 39.2598C95.8008 38.93 94.5391 38.4349 93.6426 37.7754C92.7463 37.1489 92.298 36.3743 92.2979 35.4512C92.2979 34.5278 92.7627 33.6536 93.6924 32.8291C94.6222 32.0376 96.1004 31.4109 98.126 30.9492L98.624 31.7402C98.0927 32.3668 97.7266 32.9282 97.5273 33.4229C97.3614 33.9502 97.2784 34.4448 97.2783 34.9062C97.2783 36.1925 97.8602 37.1824 99.0225 37.875C100.218 38.6004 101.878 38.9629 104.003 38.9629C105.497 38.9629 106.743 38.7491 107.739 38.3203C108.769 37.9246 109.532 37.3632 110.03 36.6377C110.561 35.9122 110.827 35.0874 110.827 34.1641C110.827 33.2409 110.478 32.4495 109.781 31.79C109.084 31.1304 107.672 30.8008 105.547 30.8008H102.857C101.33 30.8008 100.052 30.6027 99.0225 30.207C97.993 29.8113 97.212 29.2668 96.6807 28.5742C96.1495 27.8488 95.8838 27.0079 95.8838 26.0518C95.8838 24.5019 96.4981 23.1989 97.7266 22.1436C98.7254 21.2856 99.9563 20.5062 101.416 19.8008C100.368 19.6627 99.387 19.4403 98.4746 19.126C96.8808 18.5654 95.6183 17.7079 94.6885 16.5537C93.7587 15.3665 93.294 13.8656 93.2939 12.0518C93.2939 10.238 93.7588 8.75387 94.6885 7.59961C95.6183 6.41234 96.8807 5.53819 98.4746 4.97754C100.102 4.41698 101.944 4.13674 104.003 4.13672C106.062 4.13672 107.888 4.41688 109.482 4.97754C110.463 5.31543 111.317 5.76754 112.044 6.33301C112.46 5.75692 112.95 5.25535 113.517 4.8291C114.646 3.97163 115.875 3.54297 117.203 3.54297ZM98.8477 6.46094C97.3229 7.7257 95.7471 9.68391 95.8447 12.2754C96.0182 16.8804 98.848 17.4016 99.7217 17.8184C99.3909 15.4218 101.31 14.9189 102.184 14.8398C104.915 14.5236 104.91 11.8625 104.566 10.5713L103.137 9.93848C102.628 8.04156 100.648 8.04126 99.7217 8.27832L98.8477 6.46094Z" fill="#FFC97A"/>
<path d="M100.536 11.2333C100.536 10.5865 100.882 10.4248 101.208 10.4248C101.578 10.4248 101.879 10.7868 101.879 11.2333C101.879 11.6798 101.847 11.2333 101.476 11.2333C101.105 11.2333 100.536 11.6798 100.536 11.2333Z" fill="#FFC97A"/>
</svg>
